<svg preserveAspectRatio="none" width="100%" height="100%" overflow="visible" style="display: block;" viewBox="0 0 1274.28 196.364" fill="none" xmlns="http://www.w3.org/2000/svg">
<path id="YAMAHA" d="M-1.22935e-07 0H59.446L97.7983 79.7727H99.3324L137.685 0H197.131L125.028 134.616V196.364H72.1023V134.616L-1.22935e-07 0ZM245.479 196.364H187.95L252.765 0H325.635L390.45 196.364H332.922L289.967 54.0767H288.433L245.479 196.364ZM234.74 118.892H342.893V158.778H234.74V118.892ZM409.363 0H475.712L521.351 111.222H523.652L569.292 0H635.641V196.364H583.482V82.8409H581.948L538.226 194.83H506.777L463.056 82.0739H461.522V196.364H409.363V0ZM711.914 196.364H654.386L719.201 0H792.07L856.886 196.364H799.357L756.403 54.0767H754.869L711.914 196.364ZM701.175 118.892H809.329V158.778H701.175V118.892ZM875.798 196.364V0H929.108V76.7045H999.676V0H1052.99V196.364H999.676V119.659H929.108V196.364H875.798ZM1129.31 196.364H1071.78L1136.59 0H1209.46L1274.28 196.364H1216.75L1173.8 54.0767H1172.26L1129.31 196.364ZM1118.57 118.892H1226.72V158.778H1118.57V118.892Z" fill="var(--fill-0, black)"/>
</svg>
